<svg fill="#f8eeef" xmlns="http://www.w3.org/2000/svg" xmlns:xlink="http://www.w3.org/1999/xlink" version="1.1" x="0px" y="0px" viewBox="0 0 100 100" enable-background="new 0 0 100 100" xml:space="preserve"><path d="M50,12.25c-20.849,0-37.75,16.901-37.75,37.75c0,20.85,16.901,37.75,37.75,37.75c20.85,0,37.75-16.9,37.75-37.75  C87.75,29.151,70.85,12.25,50,12.25z M49.758,57.353L37.177,44.771l2.121-2.121l10.46,10.46l10.96-10.96l2.122,2.121l-10.96,10.96  L49.758,57.353z M69.314,79.191c-2.041,1.353-4.231,1.679-6.541,1.556C74.818,75.736,83.29,63.858,83.29,50  c0-18.386-14.905-33.291-33.29-33.291c-18.386,0-33.291,14.904-33.291,33.291c0,13.855,8.467,25.73,20.507,30.743  c-2.312,0.122-4.504-0.205-6.546-1.56C21.226,72.915,15,62.186,15,50c0-19.33,15.67-35,35-35s35,15.67,35,35  C85,62.191,78.768,72.926,69.314,79.191z"/></svg>
