<?xml version="1.0" encoding="utf-8"?>
<!-- Generator: Adobe Illustrator 16.0.0, SVG Export Plug-In . SVG Version: 6.00 Build 0)  -->
<!DOCTYPE svg PUBLIC "-//W3C//DTD SVG 1.1//EN" "http://www.w3.org/Graphics/SVG/1.1/DTD/svg11.dtd">
<svg version="1.1" id="Calque_1" xmlns="http://www.w3.org/2000/svg" xmlns:xlink="http://www.w3.org/1999/xlink" x="0px" y="0px"
	 width="94px" height="90px" viewBox="0 0 94 90" enable-background="new 0 0 94 90" xml:space="preserve">
<path fill="#203456" d="M50.499,90C74.522,90,94,70.524,94,46.5S74.522,3,50.499,3C26.476,3,7,22.476,7,46.5S26.476,90,50.499,90"/>
<path fill="#FFFFFF" d="M46.999,87C71.023,87,90.5,67.523,90.5,43.5C90.5,19.475,71.023,0,46.999,0C22.976,0,3.5,19.475,3.5,43.5
	C3.5,67.523,22.976,87,46.999,87"/>
<g id="icon_macron_lovers">
	<path fill="#FFFFFF" d="M23.117,45.626V60.41c0,2.506,2.047,4.549,4.549,4.549h38.667c2.504,0,4.549-2.043,4.549-4.549V45.626"/>
	<path fill="#EACCC2" d="M23.117,45.626c0,3.141,3.412,5.687,5.686,5.687c2.275,0,5.688-2.546,5.688-5.687
		c0,3.455,3.412,6.255,6.254,6.255c2.844,0,6.255-2.8,6.255-6.255c0,3.455,3.412,6.255,6.256,6.255c2.842,0,6.254-2.8,6.254-6.255
		c0,3.141,3.412,5.687,5.687,5.687s5.687-2.546,5.687-5.687v-5.687H23.117V45.626z"/>
	<path fill="none" stroke="#203456" stroke-width="1.8" stroke-linecap="round" stroke-linejoin="round" stroke-miterlimit="10" d="
		M23.276,45.714c0,3.1,3.39,5.612,5.648,5.612c2.26,0,5.649-2.513,5.649-5.612c0,3.41,3.389,6.173,6.212,6.173S47,49.124,47,45.714
		c0,3.41,3.389,6.173,6.213,6.173c2.823,0,6.213-2.763,6.213-6.173c0,3.1,3.389,5.612,5.647,5.612c2.26,0,5.648-2.513,5.648-5.612
		V40.1H23.276V45.714z M23.276,45.714v14.595c0,2.474,2.034,4.492,4.519,4.492h38.408c2.487,0,4.519-2.019,4.519-4.492V45.714"/>
	<path fill="#EACCC2" d="M59.35,20.606c0,1.795-1.456,3.252-3.252,3.252s-3.251-1.457-3.251-3.252c0-1.796,1.455-3.252,3.251-3.252
		S59.35,18.811,59.35,20.606"/>
	
		<circle fill="none" stroke="#203456" stroke-width="1.8" stroke-linecap="round" stroke-linejoin="round" stroke-miterlimit="10" cx="56.098" cy="20.606" r="3.251"/>
	<path fill="#EACCC2" d="M41.153,20.606c0,1.795-1.456,3.252-3.252,3.252s-3.251-1.457-3.251-3.252c0-1.796,1.455-3.252,3.251-3.252
		S41.153,18.811,41.153,20.606"/>
	
		<circle fill="none" stroke="#203456" stroke-width="1.8" stroke-linecap="round" stroke-linejoin="round" stroke-miterlimit="10" cx="37.902" cy="20.606" r="3.251"/>
	<path fill="#FF325A" d="M61.589,39.779c0-8.886-1.025-13.371-5.446-13.371s-5.536,4.485-5.536,13.371H61.589z"/>
	<path fill="none" stroke="#203456" stroke-width="1.8" stroke-linejoin="round" stroke-miterlimit="10" d="M61.589,39.779
		c0-8.886-1.025-13.371-5.446-13.371s-5.536,4.485-5.536,13.371H61.589z"/>
	<path fill="#203456" d="M43.428,26.452H32.375c0,2.222,2.211,5.024,2.211,6.03v7.297h6.631v-7.297
		C41.217,31.477,43.428,28.674,43.428,26.452"/>
	<path fill="none" stroke="#203456" stroke-width="1.8" stroke-linejoin="round" stroke-miterlimit="10" d="M43.428,26.452H32.375
		c0,2.222,2.211,5.024,2.211,6.03v7.297h6.631v-7.297C41.217,31.477,43.428,28.674,43.428,26.452z"/>
</g>
</svg>
