<?xml version="1.0" encoding="utf-8"?>
<!-- Generator: Adobe Illustrator 16.0.0, SVG Export Plug-In . SVG Version: 6.00 Build 0)  -->
<!DOCTYPE svg PUBLIC "-//W3C//DTD SVG 1.1//EN" "http://www.w3.org/Graphics/SVG/1.1/DTD/svg11.dtd">
<svg version="1.1" id="Calque_1" xmlns="http://www.w3.org/2000/svg" xmlns:xlink="http://www.w3.org/1999/xlink" x="0px" y="0px"
	 width="90px" height="90px" viewBox="0 0 90 90" enable-background="new 0 0 90 90" xml:space="preserve">
<path fill="#203456" d="M46.512,90C70.529,90,90,70.529,90,46.512c0-24.02-19.471-43.491-43.488-43.491
	c-24.019,0-43.49,19.471-43.49,43.491C3.022,70.529,22.493,90,46.512,90"/>
<path fill="#FFFFFF" d="M43.49,86.979c24.018,0,43.489-19.471,43.489-43.489C86.979,19.47,67.508,0,43.49,0
	C19.471,0,0,19.47,0,43.489C0,67.508,19.471,86.979,43.49,86.979"/>
<g id="icon_coup_du_lapin">
	<path fill="#FFFFFF" d="M54.588,52.357c-1.301-5.064-5.811-8.82-11.224-8.82c-5.407,0-9.918,3.755-11.219,8.82H54.588z"/>
	<path fill="#EACCC2" d="M59.424,16.849c-0.633-1.373-1.814-2.389-3.242-2.786c-1.426-0.395-2.941-0.135-4.16,0.713
		c-1.234,0.857-2.027,2.214-2.176,3.724l-2.369,23.468c0.729,0.228,1.436,0.515,2.115,0.859L59.428,21.2
		C60.059,19.817,60.057,18.232,59.424,16.849"/>
	
		<path fill="none" stroke="#FFFFFF" stroke-width="4.725" stroke-linecap="round" stroke-linejoin="round" stroke-miterlimit="10" d="
		M59.424,16.849c-0.633-1.373-1.814-2.389-3.242-2.786c-1.426-0.395-2.941-0.135-4.16,0.713c-1.234,0.857-2.027,2.214-2.176,3.724
		l-2.369,23.468c0.729,0.228,1.436,0.515,2.115,0.859L59.428,21.2C60.059,19.817,60.057,18.232,59.424,16.849z"/>
	<path fill="#EACCC2" d="M38.811,42.13c-0.389-7.826-0.777-15.653-1.165-23.479c-0.075-1.524-0.799-2.924-1.985-3.844
		c-1.174-0.913-2.673-1.252-4.113-0.932c-1.444,0.321-2.675,1.273-3.371,2.609c-0.704,1.347-0.787,2.933-0.229,4.353
		c2.921,7.418,5.842,14.834,8.763,22.251C37.385,42.709,38.087,42.388,38.811,42.13"/>
	
		<path fill="none" stroke="#FFFFFF" stroke-width="4.725" stroke-linecap="round" stroke-linejoin="round" stroke-miterlimit="10" d="
		M38.811,42.13c-0.389-7.826-0.777-15.653-1.165-23.479c-0.075-1.524-0.799-2.924-1.985-3.844c-1.174-0.913-2.673-1.252-4.113-0.932
		c-1.444,0.321-2.675,1.273-3.371,2.609c-0.704,1.347-0.787,2.933-0.229,4.353c2.921,7.418,5.842,14.834,8.763,22.251
		C37.385,42.709,38.087,42.388,38.811,42.13z"/>
	<path fill="#203456" d="M58.033,72.955c0,3.25-2.609,5.885-5.818,5.885H34.763c-3.215,0-5.816-2.635-5.816-5.885v-20.6h29.086
		V72.955z"/>
	<rect x="28.63" y="52.355" fill="#FFFFFF" width="29.561" height="8.992"/>
	<path fill="none" stroke="#203456" stroke-width="1.8" stroke-linecap="round" stroke-linejoin="round" stroke-miterlimit="10" d="
		M54.516,52.322c-1.293-5.039-5.771-8.777-11.15-8.777c-5.373,0-9.855,3.738-11.148,8.777H54.516z M41.265,43.751l-1.25-25.126
		c-0.107-2.185-1.159-4.213-2.876-5.54c-1.716-1.33-3.92-1.825-6.027-1.359c-2.111,0.47-3.908,1.854-4.919,3.787
		c-1.014,1.934-1.132,4.216-0.33,6.249l9.807,24.839C37.215,45.175,39.121,44.154,41.265,43.751z M61.455,15.982
		c-0.914-1.985-2.639-3.46-4.719-4.038c-2.086-0.578-4.313-0.198-6.094,1.041c-1.779,1.235-2.934,3.203-3.15,5.38l-2.558,25.314
		c2.123,0.297,4.058,1.161,5.648,2.465l10.881-23.901C62.369,20.255,62.363,17.964,61.455,15.982z M29.041,61.109h28.899
		 M18.925,52.322h49.127 M57.939,72.824c0,3.234-2.592,5.855-5.781,5.855H34.82c-3.194,0-5.779-2.621-5.779-5.855V52.322h28.899
		V72.824z"/>
</g>
</svg>
