<?xml version="1.0" encoding="utf-8"?>
<!-- Generator: Adobe Illustrator 16.0.0, SVG Export Plug-In . SVG Version: 6.00 Build 0)  -->
<!DOCTYPE svg PUBLIC "-//W3C//DTD SVG 1.1//EN" "http://www.w3.org/Graphics/SVG/1.1/DTD/svg11.dtd">
<svg version="1.1" id="Calque_1" xmlns="http://www.w3.org/2000/svg" xmlns:xlink="http://www.w3.org/1999/xlink" x="0px" y="0px"
	 width="94px" height="90px" viewBox="0 0 94 90" enable-background="new 0 0 94 90" xml:space="preserve">
<path fill="#203456" d="M50.499,90C74.522,90,94,70.524,94,46.5S74.522,3,50.499,3C26.476,3,7,22.476,7,46.5S26.476,90,50.499,90"/>
<path fill="#FFFFFF" d="M46.999,87C71.025,87,90.5,67.524,90.5,43.5S71.025,0,46.999,0C22.976,0,3.5,19.476,3.5,43.5
	S22.976,87,46.999,87"/>
<g id="icon_face">
	<path fill="#5CC4FF" d="M41.212,46.928c0.789,0.54,1.603,0.989,2.376,1.336v3.185c0,1.881,1.528,3.409,3.41,3.409l-6.821,10.233
		H20.849v-5.686c0-3.791,2.353-7.185,5.9-8.516L41.212,46.928z"/>
	<path fill="#FF3359" d="M73.149,59.405v5.686H53.82l-6.821-10.232c1.881,0,3.41-1.529,3.41-3.412v-3.183
		c0.791-0.353,1.608-0.813,2.417-1.364l14.422,3.99C70.795,52.22,73.149,55.614,73.149,59.405"/>
	<polygon fill="#0057A1" points="46.999,54.858 46.999,65.091 40.177,65.091 	"/>
	<path fill="#0057A1" d="M43.588,48.264c1.302,0.597,2.513,0.91,3.411,0.91v5.684c-1.882,0-3.411-1.528-3.411-3.409V48.264z"/>
	<polygon fill="#822403" points="46.999,54.858 53.82,65.091 46.999,65.091 	"/>
	<path fill="#822403" d="M50.409,48.264v3.185c0,1.881-1.528,3.409-3.411,3.409v-5.684C47.896,49.174,49.107,48.86,50.409,48.264"/>
	<path fill="#FF3359" d="M46.999,48.889v-28.14c1.137,1.137,1.137,4.548,10.232,4.548l1.137,5.685c1.108,0,1.859,0.722,2.245,1.699
		v0.006c0.803,2.018,0.052,5.117-2.245,5.117c0,3.933-2.648,7.111-5.543,9.096c-0.807,0.552-1.626,1.012-2.416,1.364
		c-1.302,0.597-2.513,0.909-3.41,0.909V48.889z"/>
	<path fill="#822403" d="M46.999,12.79c15.918,0,14.78,11.37,14.78,11.37l-1.166,8.521c-0.386-0.977-1.137-1.699-2.245-1.699
		l-1.137-5.685c-9.096,0-9.096-3.411-10.232-4.548V12.79z"/>
	<path fill="#0057A1" d="M33.384,32.682l-1.165-8.522c0,0-1.138-11.369,14.779-11.369v7.958c-1.137,1.137-1.137,4.548-10.231,4.548
		l-1.138,5.685C34.521,30.981,33.771,31.704,33.384,32.682"/>
	<path fill="#5CC4FF" d="M43.588,48.264c-0.773-0.347-1.586-0.796-2.376-1.336c-2.911-1.984-5.583-5.173-5.583-9.124
		c-2.297,0-3.047-3.098-2.245-5.117v-0.005c0.386-0.978,1.137-1.7,2.245-1.7l1.137-5.685c9.096,0,9.096-3.411,10.233-4.548v28.14
		v0.285C46.101,49.174,44.89,48.86,43.588,48.264"/>
	<path fill="none" stroke="#203456" stroke-width="1.8" stroke-linecap="round" stroke-linejoin="round" stroke-miterlimit="10" d="
		M49.259,33.296c0-1.249,1.012-1.13,2.26-1.13c1.249,0,2.26-0.119,2.26,1.13 M40.219,33.296c0-1.249,1.011-1.13,2.26-1.13
		s2.26-0.119,2.26,1.13 M41.246,46.88l-14.374,3.938c-3.524,1.322-5.864,4.695-5.864,8.464v5.649h19.211 M53.778,64.931h19.211
		v-5.649c0-3.769-2.339-7.142-5.864-8.464l-14.336-3.967 M60.53,32.725v-0.006l1.158-8.469c0,0,1.13-11.301-14.69-11.301
		c-15.819,0-14.689,11.301-14.689,11.301l1.158,8.469v0.006 M60.53,32.719c-0.384-0.971-1.13-1.689-2.231-1.689l-1.13-5.65
		c-9.04,0-9.04-3.39-10.171-4.52c-1.13,1.13-1.13,4.52-10.17,4.52l-1.13,5.65c-1.102,0-1.848,0.718-2.231,1.689 M33.467,32.725
		c-0.797,2.006-0.052,5.085,2.231,5.085c0,3.927,2.655,7.097,5.548,9.07c0.786,0.535,1.595,0.982,2.362,1.326
		c1.294,0.594,2.497,0.904,3.39,0.904c0.894,0,2.097-0.311,3.391-0.904c0.786-0.35,1.599-0.808,2.4-1.355
		c2.876-1.972,5.51-5.13,5.51-9.041c2.282,0,3.028-3.079,2.231-5.085"/>
	<path fill="none" stroke="#203456" stroke-width="1.8" stroke-linejoin="round" stroke-miterlimit="10" d="M59.552,58.238h7.913
		 M43.728,48.2v0.223v3.123c0,1.847,1.52,3.347,3.391,3.347s3.392-1.5,3.392-3.347v-3.123V48.2 M47.118,54.893l-6.782,10.038h6.782
		H53.9L47.118,54.893z"/>
</g>
</svg>
