<?xml version="1.0" encoding="utf-8"?>
<!-- Generator: Adobe Illustrator 16.0.0, SVG Export Plug-In . SVG Version: 6.00 Build 0)  -->
<!DOCTYPE svg PUBLIC "-//W3C//DTD SVG 1.1//EN" "http://www.w3.org/Graphics/SVG/1.1/DTD/svg11.dtd">
<svg version="1.1" id="Calque_1" xmlns="http://www.w3.org/2000/svg" xmlns:xlink="http://www.w3.org/1999/xlink" x="0px" y="0px"
	 width="90px" height="90px" viewBox="0 0 90 90" enable-background="new 0 0 90 90" xml:space="preserve">
<path fill="#203456" d="M46.512,90C70.529,90,90,70.529,90,46.512c0-24.02-19.471-43.491-43.488-43.491
	c-24.019,0-43.49,19.471-43.49,43.491C3.022,70.529,22.493,90,46.512,90"/>
<path fill="#FFFFFF" d="M43.49,86.979c24.018,0,43.489-19.471,43.489-43.489C86.979,19.47,67.508,0,43.49,0
	C19.471,0,0,19.47,0,43.489C0,67.508,19.471,86.979,43.49,86.979"/>
<g id="icon_place_libre">
	<path fill="#C9472B" d="M46.9,32.84c0,1.882-1.529,3.411-3.411,3.411c-1.888,0-3.411-1.529-3.411-3.411
		c0-1.882,1.523-3.411,3.411-3.411C45.372,29.429,46.9,30.958,46.9,32.84"/>
	<path fill="#E23D21" d="M69.639,45.347c0,1.894-1.158,3.519-2.803,4.202c-1.057,0.438-1.744,1.473-1.744,2.621v4.547
		c0,3.77-3.059,6.822-6.822,6.822h-2.273H30.983h-2.274c-3.769,0-6.821-3.053-6.821-6.822V52.17c0-1.148-0.693-2.184-1.751-2.621
		c-1.644-0.684-2.798-2.309-2.798-4.202c0-2.513,2.035-4.548,4.549-4.548c2.193,0,4.184,0.892,5.628,2.331
		c1.438,1.444,2.331,3.435,2.331,5.628v3.412c0,0,3.41-2.275,13.644-2.275c10.231,0,13.643,2.275,13.643,2.275v-3.412
		c0-2.193,0.887-4.184,2.33-5.628c1.439-1.439,3.428-2.331,5.629-2.331C67.605,40.799,69.639,42.834,69.639,45.347"/>
	<path fill="#E23D21" d="M58.4,18.27c2.598,3.024,3.74,7.021,3.133,10.955l-2.127,13.848l0.057,0.057
		c-1.443,1.444-2.33,3.435-2.33,5.628v3.412c0,0-3.41-2.275-13.643-2.275c-10.233,0-13.645,2.275-13.645,2.275v-3.412
		c0-2.193-0.892-4.184-2.33-5.628l0.057-0.057L25.44,29.225c-0.608-3.934,0.54-7.931,3.126-10.955
		c2.599-3.019,6.38-4.759,10.358-4.759h9.125C52.027,13.511,55.814,15.251,58.4,18.27 M43.49,36.251
		c1.882,0,3.411-1.529,3.411-3.411c0-1.882-1.529-3.411-3.411-3.411c-1.888,0-3.411,1.529-3.411,3.411
		C40.079,34.722,41.602,36.251,43.49,36.251"/>
	<path fill="none" stroke="#203456" stroke-width="1.8" stroke-linecap="round" stroke-linejoin="round" stroke-miterlimit="10" d="
		M55.887,63.393v2.26 M31.092,63.393v2.26 M59.268,43.052l2.107-13.764c0.602-3.91-0.529-7.882-3.105-10.888
		c-2.564-3-6.316-4.729-10.262-4.729h-9.043c-3.944,0-7.692,1.729-10.267,4.729c-2.564,3.006-3.702,6.978-3.1,10.888l2.113,13.764"
		/>
	<path fill="none" stroke="#203456" stroke-width="1.8" stroke-linejoin="round" stroke-miterlimit="10" d="M55.92,63.379h2.26
		c3.74,0,6.779-3.01,6.779-6.727v-4.484c0-1.131,0.684-2.15,1.736-2.584c1.633-0.672,2.783-2.275,2.783-4.141
		c0-2.477-2.021-4.484-4.52-4.484c-2.186,0-4.164,0.88-5.592,2.298c-1.438,1.424-2.318,3.386-2.318,5.55v3.361
		c0,0-3.389-2.24-13.559-2.24c-10.171,0-13.562,2.24-13.562,2.24v-3.361c0-2.164-0.887-4.126-2.315-5.55
		c-1.436-1.418-3.413-2.298-5.594-2.298c-2.497,0-4.521,2.007-4.521,4.484c0,1.866,1.147,3.469,2.78,4.141
		c1.051,0.434,1.74,1.453,1.74,2.584v4.484c0,3.717,3.033,6.727,6.779,6.727h2.261H55.92z"/>
	<path fill="none" stroke="#203456" stroke-width="1.8" stroke-linecap="round" stroke-linejoin="round" stroke-miterlimit="10" d="
		M46.82,32.84c0,1.793-1.493,3.25-3.331,3.25c-1.844,0-3.331-1.457-3.331-3.25c0-1.794,1.487-3.252,3.331-3.252
		C45.328,29.588,46.82,31.046,46.82,32.84z M36.828,35.007l3.331-2.167l-3.331-2.168 M50.15,35.007l-3.33-2.167l3.33-2.168"/>
</g>
</svg>
