<?xml version="1.0" encoding="utf-8"?>
<!-- Generator: Adobe Illustrator 16.0.0, SVG Export Plug-In . SVG Version: 6.00 Build 0)  -->
<!DOCTYPE svg PUBLIC "-//W3C//DTD SVG 1.1//EN" "http://www.w3.org/Graphics/SVG/1.1/DTD/svg11.dtd">
<svg version="1.1" id="Calque_1" xmlns="http://www.w3.org/2000/svg" xmlns:xlink="http://www.w3.org/1999/xlink" x="0px" y="0px"
	 width="90px" height="90px" viewBox="0 0 90 90" enable-background="new 0 0 90 90" xml:space="preserve">
<path fill="#203456" d="M46.511,90C70.528,90,90,70.529,90,46.512c0-24.02-19.472-43.491-43.489-43.491
	c-24.019,0-43.489,19.471-43.489,43.491C3.021,70.529,22.492,90,46.511,90"/>
<path fill="#FFFFFF" d="M43.489,86.979c24.018,0,43.488-19.471,43.488-43.489C86.978,19.47,67.507,0,43.489,0
	C19.471,0,0,19.47,0,43.489C0,67.508,19.471,86.979,43.489,86.979"/>
<g id="icon_100_x25__salades_1_">
	<path fill="#8FBF21" d="M51.488,41.264c1.057-1.395,1.683-3.142,1.683-5.021c0-4.61-3.768-8.347-8.413-8.347
		c-0.243,0-0.484,0.013-0.722,0.033c-1.309-2.925-4.259-4.965-7.691-4.965s-6.383,2.041-7.691,4.965
		c-0.237-0.02-0.478-0.033-0.722-0.033c-4.646,0-8.413,3.737-8.413,8.347c0,1.947,0.672,3.601,1.798,5.021"/>
	<path fill="none" stroke="#203456" stroke-width="1.8" stroke-linecap="round" stroke-linejoin="round" stroke-miterlimit="10" d="
		M51.488,41.264c1.057-1.395,1.683-3.142,1.683-5.021c0-4.61-3.768-8.347-8.413-8.347c-0.243,0-0.484,0.013-0.722,0.033
		c-1.309-2.925-4.259-4.965-7.691-4.965s-6.383,2.041-7.691,4.965c-0.237-0.02-0.478-0.033-0.722-0.033
		c-4.646,0-8.413,3.737-8.413,8.347c0,1.947,0.672,3.601,1.798,5.021"/>
	<path fill="#8FBF21" d="M65.575,41.264c1.056-1.395,1.682-3.142,1.682-5.021c0-4.61-3.767-8.347-8.413-8.347
		c-0.243,0-0.484,0.013-0.722,0.033c-1.309-2.925-4.259-4.965-7.691-4.965s-6.383,2.041-7.691,4.965
		c-0.237-0.02-0.478-0.033-0.722-0.033c-4.646,0-8.413,3.737-8.413,8.347c0,1.947,0.672,3.601,1.798,5.021"/>
	<path fill="none" stroke="#203456" stroke-width="1.8" stroke-linecap="round" stroke-linejoin="round" stroke-miterlimit="10" d="
		M65.575,41.264c1.056-1.395,1.682-3.142,1.682-5.021c0-4.61-3.767-8.347-8.413-8.347c-0.243,0-0.484,0.013-0.722,0.033
		c-1.309-2.925-4.259-4.965-7.691-4.965s-6.383,2.041-7.691,4.965c-0.237-0.02-0.478-0.033-0.722-0.033
		c-4.646,0-8.413,3.737-8.413,8.347c0,1.947,0.672,3.601,1.798,5.021"/>
	<path fill="none" stroke="#203456" stroke-width="1.8" stroke-linecap="round" stroke-miterlimit="10" d="M26.552,35.007
		l2.413,2.321 M41.292,35.007l2.413,2.321 M57.457,37.328l2.414-2.321 M50.362,30.927v5.365"/>
	<path fill="#D9D9D9" d="M71.835,41.779c0,15.567-12.69,28.278-28.346,28.278S15.144,57.348,15.144,41.779H71.835z"/>
	<path fill="none" stroke="#203456" stroke-width="1.8" stroke-linecap="round" stroke-linejoin="round" stroke-miterlimit="10" d="
		M71.835,41.779c0,15.567-12.69,28.278-28.346,28.278S15.144,57.348,15.144,41.779H71.835z"/>
	<path fill="none" stroke="#203456" stroke-width="1.8" stroke-linecap="round" stroke-miterlimit="10" d="M65.302,50.141
		l-0.499,1.156 M62.496,55.199c-4.53,6.1-11.604,9.539-18.818,9.539"/>
</g>
</svg>
