<?xml version="1.0" encoding="utf-8"?>
<!-- Generator: Adobe Illustrator 16.0.0, SVG Export Plug-In . SVG Version: 6.00 Build 0)  -->
<!DOCTYPE svg PUBLIC "-//W3C//DTD SVG 1.1//EN" "http://www.w3.org/Graphics/SVG/1.1/DTD/svg11.dtd">
<svg version="1.1" id="Calque_1" xmlns="http://www.w3.org/2000/svg" xmlns:xlink="http://www.w3.org/1999/xlink" x="0px" y="0px"
	 width="94px" height="90px" viewBox="0 0 94 90" enable-background="new 0 0 94 90" xml:space="preserve">
<path fill="#203456" d="M50.499,90C74.522,90,94,70.524,94,46.5S74.522,3,50.499,3C26.476,3,7,22.476,7,46.5S26.476,90,50.499,90"/>
<path fill="#FFFFFF" d="M47,87c24.024,0,43.5-19.477,43.5-43.5C90.5,19.475,71.024,0,47,0C22.977,0,3.5,19.475,3.5,43.5
	C3.5,67.523,22.977,87,47,87"/>
<g id="icon_cadeau">
	<path fill="#24B8CF" d="M54.75,67.146V31.721 M39.251,31.721v35.426 M70.248,67.146H23.753V40.577h46.495V67.146z M72.462,40.576
		H21.537v-8.855h50.925V40.576z"/>
	<g>
		<path fill="#E23D21" d="M34.616,26.725C36.754,28.838,47,31.314,47,31.314s-2.508-10.13-4.643-12.241
			c-2.139-2.113-5.604-2.113-7.741,0C32.48,21.185,32.479,24.61,34.616,26.725 M59.385,26.725C57.247,28.838,47,31.314,47,31.314
			s2.506-10.13,4.644-12.241c2.138-2.113,5.604-2.113,7.741,0C61.521,21.185,61.521,24.61,59.385,26.725"/>
		
			<path fill="none" stroke="#203456" stroke-width="1.8" stroke-linecap="round" stroke-linejoin="round" stroke-miterlimit="10" d="
			M34.616,26.725C36.754,28.838,47,31.314,47,31.314s-2.508-10.13-4.643-12.241c-2.139-2.113-5.604-2.113-7.741,0
			C32.48,21.185,32.479,24.61,34.616,26.725z M59.385,26.725C57.247,28.838,47,31.314,47,31.314s2.506-10.13,4.644-12.241
			c2.138-2.113,5.604-2.113,7.741,0C61.521,21.185,61.521,24.61,59.385,26.725z"/>
	</g>
	<rect x="39.298" y="31.603" fill="#E23D21" width="15.499" height="35.425"/>
	<path fill="none" stroke="#203456" stroke-width="1.8" stroke-linejoin="round" stroke-miterlimit="10" d="M54.7,66.984V31.879
		 M39.3,31.879v35.105 M70.103,66.984H23.897V40.655h46.205V66.984z M72.304,40.655H21.697v-8.776h50.606V40.655z"/>
</g>
</svg>
