<?xml version="1.0" encoding="utf-8"?>
<!-- Generator: Adobe Illustrator 16.0.0, SVG Export Plug-In . SVG Version: 6.00 Build 0)  -->
<!DOCTYPE svg PUBLIC "-//W3C//DTD SVG 1.1//EN" "http://www.w3.org/Graphics/SVG/1.1/DTD/svg11.dtd">
<svg version="1.1" id="Calque_1" xmlns="http://www.w3.org/2000/svg" xmlns:xlink="http://www.w3.org/1999/xlink" x="0px" y="0px"
	 width="94px" height="90px" viewBox="0 0 94 90" enable-background="new 0 0 94 90" xml:space="preserve">
<path fill="#203456" d="M50.499,90C74.522,90,94,70.524,94,46.5S74.522,3,50.499,3C26.476,3,7,22.476,7,46.5S26.476,90,50.499,90"/>
<path fill="#FFFFFF" d="M47.001,87C71.024,87,90.5,67.523,90.5,43.5C90.5,19.475,71.024,0,47.001,0C22.977,0,3.5,19.475,3.5,43.5
	C3.5,67.523,22.977,87,47.001,87"/>
<g id="icon_100_x25__salades_1_">
	<path fill="#8FBF21" d="M55.002,41.274c1.058-1.396,1.683-3.143,1.683-5.022c0-4.611-3.768-8.349-8.414-8.349
		c-0.244,0-0.484,0.013-0.723,0.032c-1.309-2.926-4.26-4.966-7.693-4.966s-6.385,2.041-7.693,4.966
		c-0.238-0.02-0.478-0.032-0.723-0.032c-4.646,0-8.414,3.737-8.414,8.349c0,1.947,0.672,3.602,1.798,5.022"/>
	<path fill="none" stroke="#203456" stroke-width="1.8" stroke-linecap="round" stroke-linejoin="round" stroke-miterlimit="10" d="
		M55.002,41.274c1.058-1.396,1.683-3.143,1.683-5.022c0-4.611-3.768-8.349-8.414-8.349c-0.244,0-0.484,0.013-0.723,0.032
		c-1.309-2.926-4.26-4.966-7.693-4.966s-6.385,2.041-7.693,4.966c-0.238-0.02-0.478-0.032-0.723-0.032
		c-4.646,0-8.414,3.737-8.414,8.349c0,1.947,0.672,3.602,1.798,5.022"/>
	<path fill="#8FBF21" d="M69.093,41.274c1.057-1.396,1.683-3.143,1.683-5.022c0-4.611-3.769-8.349-8.416-8.349
		c-0.243,0-0.484,0.013-0.722,0.032c-1.31-2.926-4.26-4.966-7.693-4.966s-6.385,2.041-7.693,4.966
		c-0.237-0.02-0.479-0.032-0.723-0.032c-4.646,0-8.414,3.737-8.414,8.349c0,1.947,0.672,3.602,1.798,5.022"/>
	<path fill="none" stroke="#203456" stroke-width="1.8" stroke-linecap="round" stroke-linejoin="round" stroke-miterlimit="10" d="
		M69.093,41.274c1.057-1.396,1.683-3.143,1.683-5.022c0-4.611-3.769-8.349-8.416-8.349c-0.243,0-0.484,0.013-0.722,0.032
		c-1.31-2.926-4.26-4.966-7.693-4.966s-6.385,2.041-7.693,4.966c-0.237-0.02-0.479-0.032-0.723-0.032
		c-4.646,0-8.414,3.737-8.414,8.349c0,1.947,0.672,3.602,1.798,5.022"/>
	<path fill="none" stroke="#203456" stroke-width="1.8" stroke-linecap="round" stroke-miterlimit="10" d="M30.059,35.016
		l2.414,2.321 M44.804,35.016l2.413,2.321 M60.973,37.337l2.414-2.321 M53.876,30.934V36.3"/>
	<path fill="#D9D9D9" d="M75.354,41.789c0,15.57-12.694,28.284-28.354,28.284S18.647,57.361,18.647,41.789H75.354z"/>
	<path fill="none" stroke="#203456" stroke-width="1.8" stroke-linecap="round" stroke-linejoin="round" stroke-miterlimit="10" d="
		M75.354,41.789c0,15.57-12.694,28.284-28.354,28.284S18.647,57.361,18.647,41.789H75.354z"/>
	<path fill="none" stroke="#203456" stroke-width="1.8" stroke-linecap="round" stroke-miterlimit="10" d="M68.819,50.152
		l-0.499,1.156 M66.013,55.213c-4.531,6.101-11.606,9.542-18.823,9.542"/>
</g>
</svg>
