<?xml version="1.0" encoding="utf-8"?>
<!-- Generator: Adobe Illustrator 16.0.0, SVG Export Plug-In . SVG Version: 6.00 Build 0)  -->
<!DOCTYPE svg PUBLIC "-//W3C//DTD SVG 1.1//EN" "http://www.w3.org/Graphics/SVG/1.1/DTD/svg11.dtd">
<svg version="1.1" id="Calque_1" xmlns="http://www.w3.org/2000/svg" xmlns:xlink="http://www.w3.org/1999/xlink" x="0px" y="0px"
	 width="94px" height="90px" viewBox="0 0 94 90" enable-background="new 0 0 94 90" xml:space="preserve">
<path fill="#203456" d="M50.499,90C74.522,90,94,70.524,94,46.5S74.522,3,50.499,3C26.476,3,7,22.476,7,46.5S26.476,90,50.499,90"/>
<path fill="#FFFFFF" d="M47,87c24.023,0,43.5-19.477,43.5-43.5C90.5,19.475,71.023,0,47,0C22.976,0,3.5,19.475,3.5,43.5
	C3.5,67.523,22.976,87,47,87"/>
<g id="icon_place_libre">
	<path fill="#C9472B" d="M50.411,32.848c0,1.883-1.528,3.412-3.411,3.412c-1.888,0-3.412-1.529-3.412-3.412s1.524-3.411,3.412-3.411
		C48.883,29.437,50.411,30.965,50.411,32.848"/>
	<path fill="#E23D21" d="M73.156,45.357c0,1.894-1.159,3.52-2.804,4.203c-1.057,0.438-1.745,1.473-1.745,2.621v4.548
		c0,3.771-3.059,6.824-6.823,6.824h-2.275H34.49h-2.275c-3.77,0-6.823-3.054-6.823-6.824v-4.548c0-1.148-0.693-2.184-1.751-2.621
		c-1.645-0.684-2.799-2.31-2.799-4.203c0-2.513,2.036-4.549,4.55-4.549c2.194,0,4.185,0.893,5.63,2.332
		c1.438,1.444,2.331,3.435,2.331,5.628v3.413c0,0,3.411-2.274,13.647-2.274c10.234,0,13.646,2.274,13.646,2.274v-3.413
		c0-2.193,0.888-4.184,2.331-5.628c1.439-1.439,3.429-2.332,5.63-2.332C71.121,40.809,73.156,42.845,73.156,45.357"/>
	<path fill="#E23D21" d="M61.914,18.274c2.6,3.024,3.742,7.022,3.134,10.957l-2.127,13.853l0.057,0.057
		c-1.443,1.444-2.33,3.435-2.33,5.629v3.412c0,0-3.412-2.274-13.647-2.274c-10.236,0-13.648,2.274-13.648,2.274V48.77
		c0-2.194-0.892-4.185-2.33-5.629l0.057-0.057l-2.133-13.853c-0.608-3.935,0.54-7.933,3.127-10.957
		c2.6-3.021,6.382-4.761,10.361-4.761h9.126C55.54,13.514,59.327,15.254,61.914,18.274 M47,36.26c1.883,0,3.411-1.529,3.411-3.412
		S48.883,29.437,47,29.437c-1.888,0-3.412,1.528-3.412,3.411S45.112,36.26,47,36.26"/>
	<path fill="none" stroke="#203456" stroke-width="1.8" stroke-linecap="round" stroke-linejoin="round" stroke-miterlimit="10" d="
		M59.399,63.407v2.262 M34.6,63.407v2.262 M62.781,43.063l2.108-13.768c0.603-3.911-0.529-7.885-3.105-10.891
		c-2.565-3.001-6.319-4.73-10.265-4.73h-9.046c-3.945,0-7.694,1.729-10.27,4.73c-2.565,3.006-3.703,6.979-3.101,10.891l2.114,13.768
		"/>
	<path fill="none" stroke="#203456" stroke-width="1.8" stroke-linejoin="round" stroke-miterlimit="10" d="M59.433,63.394h2.261
		c3.741,0,6.782-3.011,6.782-6.728v-4.485c0-1.132,0.684-2.151,1.735-2.584c1.634-0.674,2.785-2.277,2.785-4.143
		c0-2.478-2.022-4.485-4.521-4.485c-2.188,0-4.165,0.88-5.595,2.299c-1.437,1.424-2.317,3.386-2.317,5.55v3.363
		c0,0-3.391-2.241-13.563-2.241c-10.174,0-13.565,2.241-13.565,2.241v-3.363c0-2.164-0.887-4.126-2.315-5.55
		c-1.437-1.419-3.414-2.299-5.596-2.299c-2.497,0-4.521,2.008-4.521,4.485c0,1.865,1.147,3.469,2.781,4.143
		c1.051,0.433,1.74,1.452,1.74,2.584v4.485c0,3.717,3.034,6.728,6.781,6.728h2.262H59.433z"/>
	<path fill="none" stroke="#203456" stroke-width="1.8" stroke-linecap="round" stroke-linejoin="round" stroke-miterlimit="10" d="
		M50.332,32.848c0,1.794-1.494,3.251-3.332,3.251c-1.844,0-3.332-1.457-3.332-3.251s1.488-3.252,3.332-3.252
		C48.838,29.596,50.332,31.054,50.332,32.848z M40.336,35.016l3.332-2.168l-3.332-2.168 M53.663,35.016l-3.331-2.168l3.331-2.168"/>
</g>
</svg>
