<?xml version="1.0" encoding="utf-8"?>
<!-- Generator: Adobe Illustrator 16.0.0, SVG Export Plug-In . SVG Version: 6.00 Build 0)  -->
<!DOCTYPE svg PUBLIC "-//W3C//DTD SVG 1.1//EN" "http://www.w3.org/Graphics/SVG/1.1/DTD/svg11.dtd">
<svg version="1.1" id="Calque_1" xmlns="http://www.w3.org/2000/svg" xmlns:xlink="http://www.w3.org/1999/xlink" x="0px" y="0px"
	 width="94px" height="90px" viewBox="0 0 94 90" enable-background="new 0 0 94 90" xml:space="preserve">
<path fill="#203456" d="M50.499,90C74.522,90,94,70.524,94,46.5S74.522,3,50.499,3C26.476,3,7,22.476,7,46.5S26.476,90,50.499,90"/>
<path fill="#FFFFFF" d="M47,87c24.024,0,43.5-19.476,43.5-43.5S71.024,0,47,0C22.977,0,3.5,19.476,3.5,43.5S22.977,87,47,87"/>
<g>
	
		<rect x="44.271" y="28.319" transform="matrix(0.9412 0.3379 -0.3379 0.9412 18.8219 -16.5913)" fill="none" stroke="#203456" stroke-width="1.8" stroke-linecap="round" stroke-linejoin="round" stroke-miterlimit="10" width="25.587" height="34.892"/>
	
		<rect x="52.901" y="30.148" transform="matrix(0.9041 -0.4274 0.4274 0.9041 -8.0822 25.9349)" fill="#203456" width="1.647" height="1.644"/>
	<polygon fill="#203456" points="60.802,59.461 59.309,60.165 60.013,61.65 61.5,60.948 	"/>
	<path fill="#203456" d="M27.078,24.358c-0.086,0-0.175,0.01-0.263,0.03c-0.626,0.147-1.015,0.77-0.873,1.397
		c0.125,0.539,0.602,0.899,1.132,0.899c0.086,0,0.174-0.01,0.263-0.027c0.627-0.144,1.018-0.768,0.872-1.396
		C28.087,24.722,27.607,24.358,27.078,24.358"/>
	<path fill="#FF3359" d="M42.417,35.118c0.521,2.267-1.482,3.926-3.748,4.447c-2.271,0.522-4.799-0.091-5.321-2.358
		c-0.521-2.263,3.228-6.713,3.228-6.713S41.895,32.85,42.417,35.118"/>
	<path fill="none" stroke="#203456" stroke-width="1.8" stroke-linecap="round" stroke-linejoin="round" stroke-miterlimit="10" d="
		M40.726,53.409l-11.392,2.625l-7.835-34.001l24.934-5.743l2.98,12.926 M38.669,39.565l0.521,2.267 M42.417,35.118
		c0.521,2.267-1.482,3.926-3.748,4.447c-2.271,0.522-4.799-0.091-5.321-2.358c-0.521-2.263,3.228-6.713,3.228-6.713
		S41.895,32.85,42.417,35.118z"/>
	<polygon fill="#203456" points="54.709,52.332 52.688,44.193 59.422,39.197 61.444,47.337 	"/>
	
		<polygon fill="none" stroke="#203456" stroke-width="1.8" stroke-linecap="round" stroke-linejoin="round" stroke-miterlimit="10" points="
		54.709,52.332 52.688,44.193 59.422,39.197 61.444,47.337 	"/>
</g>
</svg>
