<?xml version="1.0" encoding="utf-8"?>
<!-- Generator: Adobe Illustrator 16.0.0, SVG Export Plug-In . SVG Version: 6.00 Build 0)  -->
<!DOCTYPE svg PUBLIC "-//W3C//DTD SVG 1.1//EN" "http://www.w3.org/Graphics/SVG/1.1/DTD/svg11.dtd">
<svg version="1.1" id="Calque_1" xmlns="http://www.w3.org/2000/svg" xmlns:xlink="http://www.w3.org/1999/xlink" x="0px" y="0px"
	 width="90px" height="90px" viewBox="0 0 90 90" enable-background="new 0 0 90 90" xml:space="preserve">
<path fill="#203456" d="M46.51,90C70.529,90,90,70.529,90,46.512c0-24.02-19.471-43.491-43.49-43.491
	c-24.017,0-43.488,19.471-43.488,43.491C3.022,70.529,22.493,90,46.51,90"/>
<path fill="#FFFFFF" d="M43.489,86.979c24.019,0,43.49-19.471,43.49-43.489C86.979,19.471,67.508,0,43.489,0
	C19.471,0,0,19.471,0,43.49C0,67.508,19.471,86.979,43.489,86.979"/>
<g id="icon_green_washing">
	<polygon fill="#8FBF21" points="62.816,64.755 35.53,64.755 35.53,55.659 30.982,64.755 24.161,64.755 24.161,46.564 
		62.816,46.564 	"/>
	<path fill="#E9AF32" d="M44.625,18.139c0,0.63-0.508,1.137-1.137,1.137c-0.626,0-1.138-0.507-1.138-1.137
		c0-0.628,0.512-1.137,1.138-1.137C44.118,17.001,44.625,17.511,44.625,18.139 M65.092,46.563v-7.959
		c0-1.885-1.529-3.411-3.412-3.411H50.258c-1.605,0-2.709-1.621-2.111-3.119c0.682-1.696,1.027-3.504,1.027-5.327v-8.609
		c0-3.139-2.545-5.684-5.685-5.684c-3.14,0-5.685,2.545-5.685,5.684v8.609c0,1.823,0.348,3.631,1.026,5.327
		c0.598,1.488-0.5,3.119-2.11,3.119H25.297c-1.883,0-3.411,1.526-3.411,3.411v7.959H65.092z"/>
	<rect x="24.161" y="46.563" fill="#FFE094" width="38.656" height="9.125"/>
	<path fill="none" stroke="#203456" stroke-width="1.8" stroke-linecap="round" stroke-linejoin="round" stroke-miterlimit="10" d="
		M44.636,17.977c0,0.634-0.513,1.146-1.147,1.146c-0.633,0-1.147-0.512-1.147-1.146c0-0.633,0.515-1.146,1.147-1.146
		C44.124,16.831,44.636,17.344,44.636,17.977z M49.229,59.232v5.729 M53.82,55.794v9.168 M58.412,53.502v11.46 M63.004,64.962
		h-27.55v-9.168l-4.592,9.168h-6.887V46.626h39.029V64.962z M50.322,35.166c-1.621,0-2.734-1.634-2.131-3.144
		c0.688-1.708,1.037-3.531,1.037-5.369v-8.676c0-3.165-2.568-5.73-5.74-5.73c-3.171,0-5.739,2.565-5.739,5.73v8.676
		c0,1.838,0.352,3.661,1.036,5.369c0.604,1.5-0.506,3.144-2.131,3.144H25.124c-1.902,0-3.444,1.539-3.444,3.438v8.022h43.62v-8.022
		c0-1.899-1.543-3.438-3.443-3.438H50.322z"/>
</g>
</svg>
