<?xml version="1.0" encoding="utf-8"?>
<!-- Generator: Adobe Illustrator 16.0.0, SVG Export Plug-In . SVG Version: 6.00 Build 0)  -->
<!DOCTYPE svg PUBLIC "-//W3C//DTD SVG 1.1//EN" "http://www.w3.org/Graphics/SVG/1.1/DTD/svg11.dtd">
<svg version="1.1" id="Calque_1" xmlns="http://www.w3.org/2000/svg" xmlns:xlink="http://www.w3.org/1999/xlink" x="0px" y="0px"
	 width="90px" height="90px" viewBox="0 0 90 90" enable-background="new 0 0 90 90" xml:space="preserve">
<path fill="#203456" d="M46.51,90C70.529,90,90,70.529,90,46.512c0-24.02-19.471-43.491-43.49-43.491
	c-24.017,0-43.488,19.471-43.488,43.491C3.022,70.529,22.493,90,46.51,90"/>
<path fill="#FFFFFF" d="M43.489,86.979c24.019,0,43.49-19.471,43.49-43.489C86.979,19.47,67.508,0,43.489,0
	C19.471,0,0,19.47,0,43.489C0,67.508,19.471,86.979,43.489,86.979"/>
<g id="icon_macron_lovers">
	<path fill="#FFFFFF" d="M19.613,45.615v14.781c0,2.504,2.047,4.547,4.548,4.547h38.658c2.502,0,4.547-2.043,4.547-4.547V45.615"/>
	<path fill="#EACCC2" d="M19.613,45.615c0,3.141,3.411,5.686,5.685,5.686c2.274,0,5.686-2.545,5.686-5.686
		c0,3.455,3.411,6.254,6.253,6.254c2.843,0,6.253-2.799,6.253-6.254c0,3.455,3.412,6.254,6.253,6.254s6.254-2.799,6.254-6.254
		c0,3.141,3.41,5.686,5.684,5.686c2.275,0,5.686-2.545,5.686-5.686V39.93H19.613V45.615z"/>
	<path fill="none" stroke="#203456" stroke-width="1.8" stroke-linecap="round" stroke-linejoin="round" stroke-miterlimit="10" d="
		M19.772,45.702c0,3.101,3.389,5.612,5.647,5.612s5.647-2.512,5.647-5.612c0,3.411,3.388,6.173,6.211,6.173
		c2.822,0,6.212-2.762,6.212-6.173c0,3.411,3.387,6.173,6.211,6.173c2.822,0,6.211-2.762,6.211-6.173
		c0,3.101,3.389,5.612,5.646,5.612c2.26,0,5.646-2.512,5.646-5.612V40.09H19.772V45.702z M19.772,45.702v14.593
		c0,2.473,2.034,4.49,4.518,4.49h38.398c2.486,0,4.518-2.018,4.518-4.49V45.702"/>
	<path fill="#EACCC2" d="M55.836,20.602c0,1.795-1.455,3.251-3.25,3.251c-1.797,0-3.252-1.456-3.252-3.251s1.455-3.251,3.252-3.251
		C54.381,17.351,55.836,18.807,55.836,20.602"/>
	
		<circle fill="none" stroke="#203456" stroke-width="1.8" stroke-linecap="round" stroke-linejoin="round" stroke-miterlimit="10" cx="52.585" cy="20.602" r="3.251"/>
	<path fill="#EACCC2" d="M37.645,20.602c0,1.795-1.456,3.251-3.252,3.251c-1.795,0-3.25-1.456-3.25-3.251s1.455-3.251,3.25-3.251
		C36.189,17.351,37.645,18.807,37.645,20.602"/>
	
		<circle fill="none" stroke="#203456" stroke-width="1.8" stroke-linecap="round" stroke-linejoin="round" stroke-miterlimit="10" cx="34.394" cy="20.602" r="3.251"/>
	<path fill="#FF325A" d="M58.074,39.77c0-8.884-1.025-13.368-5.443-13.368c-4.42,0-5.535,4.484-5.535,13.368H58.074z"/>
	<path fill="none" stroke="#203456" stroke-width="1.8" stroke-linejoin="round" stroke-miterlimit="10" d="M58.074,39.77
		c0-8.884-1.025-13.368-5.443-13.368c-4.42,0-5.535,4.484-5.535,13.368H58.074z"/>
	<path fill="#203456" d="M39.918,26.446h-11.05c0,2.221,2.21,5.023,2.21,6.029v7.295h6.63v-7.295
		C37.708,31.469,39.918,28.667,39.918,26.446"/>
	<path fill="none" stroke="#203456" stroke-width="1.8" stroke-linejoin="round" stroke-miterlimit="10" d="M39.918,26.446h-11.05
		c0,2.221,2.21,5.023,2.21,6.029v7.295h6.63v-7.295C37.708,31.469,39.918,28.667,39.918,26.446z"/>
</g>
</svg>
