<?xml version="1.0" encoding="utf-8"?>
<!-- Generator: Adobe Illustrator 16.0.0, SVG Export Plug-In . SVG Version: 6.00 Build 0)  -->
<!DOCTYPE svg PUBLIC "-//W3C//DTD SVG 1.1//EN" "http://www.w3.org/Graphics/SVG/1.1/DTD/svg11.dtd">
<svg version="1.1" id="Calque_1" xmlns="http://www.w3.org/2000/svg" xmlns:xlink="http://www.w3.org/1999/xlink" x="0px" y="0px"
	 width="90px" height="90px" viewBox="0 0 90 90" enable-background="new 0 0 90 90" xml:space="preserve">
<path fill="#203456" d="M46.512,90C70.529,90,90,70.529,90,46.512c0-24.02-19.471-43.491-43.488-43.491
	c-24.019,0-43.49,19.471-43.49,43.491C3.022,70.529,22.493,90,46.512,90"/>
<path fill="#FFFFFF" d="M43.49,86.979c24.018,0,43.489-19.471,43.489-43.489C86.979,19.47,67.508,0,43.49,0
	C19.471,0,0,19.47,0,43.489C0,67.508,19.471,86.979,43.49,86.979"/>
<g id="icon_face">
	<path fill="#5CC4FF" d="M37.703,46.928c0.789,0.541,1.603,0.99,2.376,1.336v3.186c0,1.881,1.528,3.408,3.41,3.408l-6.821,10.234
		H17.339v-5.686c0-3.791,2.353-7.186,5.9-8.516L37.703,46.928z"/>
	<path fill="#FF3359" d="M69.641,59.406v5.686h-19.33L43.49,54.859c1.881,0,3.411-1.529,3.411-3.412v-3.184
		c0.791-0.352,1.607-0.813,2.416-1.363l14.422,3.99C67.285,52.221,69.641,55.615,69.641,59.406"/>
	<polygon fill="#0057A1" points="43.49,54.859 43.49,65.092 36.667,65.092 	"/>
	<path fill="#0057A1" d="M40.079,48.264c1.302,0.598,2.513,0.91,3.411,0.91v5.684c-1.882,0-3.411-1.527-3.411-3.408V48.264z"/>
	<polygon fill="#822403" points="43.49,54.859 50.311,65.092 43.49,65.092 	"/>
	<path fill="#822403" d="M46.9,48.264v3.186c0,1.881-1.529,3.408-3.412,3.408v-5.684C44.387,49.174,45.598,48.861,46.9,48.264"/>
	<path fill="#FF3359" d="M43.49,48.889V20.75c1.137,1.137,1.137,4.548,10.233,4.548l1.137,5.685c1.107,0,1.859,0.722,2.244,1.699
		v0.006c0.803,2.018,0.053,5.117-2.244,5.117c0,3.933-2.648,7.111-5.543,9.096c-0.807,0.551-1.627,1.012-2.416,1.363
		c-1.302,0.598-2.513,0.91-3.411,0.91V48.889z"/>
	<path fill="#822403" d="M43.49,12.791c15.918,0,14.78,11.37,14.78,11.37l-1.166,8.521c-0.385-0.977-1.137-1.699-2.244-1.699
		l-1.137-5.685c-9.096,0-9.096-3.411-10.233-4.548V12.791z"/>
	<path fill="#0057A1" d="M29.875,32.682l-1.165-8.522c0,0-1.138-11.369,14.779-11.369v7.958c-1.137,1.137-1.137,4.548-10.231,4.548
		l-1.138,5.685C31.011,30.982,30.261,31.704,29.875,32.682"/>
	<path fill="#5CC4FF" d="M40.079,48.264c-0.773-0.346-1.586-0.795-2.376-1.336c-2.911-1.984-5.583-5.173-5.583-9.124
		c-2.297,0-3.047-3.098-2.245-5.117v-0.005c0.386-0.978,1.137-1.7,2.245-1.7l1.137-5.685c9.096,0,9.096-3.411,10.233-4.548v28.14
		v0.285C42.591,49.174,41.38,48.861,40.079,48.264"/>
	<path fill="none" stroke="#203456" stroke-width="1.8" stroke-linecap="round" stroke-linejoin="round" stroke-miterlimit="10" d="
		M45.75,33.297c0-1.249,1.012-1.13,2.26-1.13s2.26-0.119,2.26,1.13 M36.709,33.297c0-1.249,1.011-1.13,2.26-1.13
		s2.26-0.119,2.26,1.13 M37.737,46.881l-14.374,3.938c-3.524,1.322-5.864,4.695-5.864,8.463v5.65h19.211 M50.27,64.932H69.48v-5.65
		c0-3.768-2.34-7.141-5.865-8.463l-14.336-3.967 M57.021,32.726V32.72l1.158-8.469c0,0,1.129-11.301-14.691-11.301
		c-15.819,0-14.689,11.301-14.689,11.301l1.158,8.469v0.006 M57.021,32.72c-0.385-0.971-1.131-1.689-2.232-1.689l-1.129-5.65
		c-9.041,0-9.041-3.39-10.171-4.52c-1.13,1.13-1.13,4.52-10.17,4.52l-1.13,5.65c-1.102,0-1.848,0.718-2.231,1.689 M29.958,32.726
		c-0.797,2.006-0.052,5.085,2.231,5.085c0,3.927,2.655,7.097,5.548,9.07c0.786,0.535,1.595,0.982,2.362,1.326
		c1.294,0.594,2.497,0.904,3.39,0.904c0.894,0,2.097-0.311,3.39-0.904c0.787-0.35,1.6-0.809,2.4-1.355
		c2.877-1.973,5.51-5.131,5.51-9.041c2.283,0,3.029-3.079,2.232-5.085"/>
	<path fill="none" stroke="#203456" stroke-width="1.8" stroke-linejoin="round" stroke-miterlimit="10" d="M56.043,58.238h7.912
		 M40.218,48.201v0.223v3.123c0,1.846,1.52,3.346,3.391,3.346S47,53.393,47,51.547v-3.123v-0.223 M43.609,54.893l-6.782,10.039
		h6.782h6.782L43.609,54.893z"/>
</g>
</svg>
