<?xml version="1.0" encoding="utf-8"?>
<!-- Generator: Adobe Illustrator 16.0.0, SVG Export Plug-In . SVG Version: 6.00 Build 0)  -->
<!DOCTYPE svg PUBLIC "-//W3C//DTD SVG 1.1//EN" "http://www.w3.org/Graphics/SVG/1.1/DTD/svg11.dtd">
<svg version="1.1" id="Calque_1" xmlns="http://www.w3.org/2000/svg" xmlns:xlink="http://www.w3.org/1999/xlink" x="0px" y="0px"
	 width="94px" height="90px" viewBox="0 0 94 90" enable-background="new 0 0 94 90" xml:space="preserve">
<path fill="#203456" d="M50.499,90C74.522,90,94,70.524,94,46.5S74.522,3,50.499,3C26.476,3,7,22.476,7,46.5S26.476,90,50.499,90"/>
<path fill="#FFFFFF" d="M47,87c24.024,0,43.5-19.476,43.5-43.5C90.5,19.476,71.024,0,47,0C22.977,0,3.5,19.476,3.5,43.5
	C3.5,67.524,22.977,87,47,87"/>
<g id="icon_green_washing">
	<polygon fill="#8FBF21" points="66.333,64.771 39.039,64.771 39.039,55.673 34.49,64.771 27.667,64.771 27.667,46.576 
		66.333,46.576 	"/>
	<path fill="#E9AF32" d="M48.137,18.143c0,0.63-0.508,1.137-1.137,1.137c-0.626,0-1.138-0.507-1.138-1.137
		c0-0.628,0.512-1.137,1.138-1.137C47.629,17.006,48.137,17.515,48.137,18.143 M68.608,46.575v-7.961
		c0-1.885-1.529-3.412-3.412-3.412H53.771c-1.606,0-2.709-1.621-2.111-3.12c0.681-1.697,1.027-3.505,1.027-5.328v-8.611
		c0-3.14-2.545-5.686-5.687-5.686c-3.141,0-5.686,2.546-5.686,5.686v8.611c0,1.823,0.348,3.631,1.026,5.328
		c0.598,1.488-0.5,3.12-2.111,3.12H28.804c-1.883,0-3.412,1.527-3.412,3.412v7.961H68.608z"/>
	<rect x="27.667" y="46.575" fill="#FFE094" width="38.666" height="9.127"/>
	<path fill="none" stroke="#203456" stroke-width="1.8" stroke-linecap="round" stroke-linejoin="round" stroke-miterlimit="10" d="
		M48.147,17.981c0,0.634-0.513,1.146-1.147,1.146c-0.633,0-1.147-0.513-1.147-1.146c0-0.633,0.515-1.146,1.147-1.146
		C47.635,16.835,48.147,17.349,48.147,17.981z M52.741,59.247v5.73 M57.334,55.808v9.17 M61.927,53.516v11.462 M66.52,64.978H38.963
		v-9.17l-4.593,9.17h-6.889v-18.34H66.52V64.978z M53.835,35.175c-1.621,0-2.734-1.634-2.131-3.145
		c0.687-1.708,1.037-3.532,1.037-5.37v-8.678c0-3.166-2.569-5.731-5.741-5.731s-5.741,2.565-5.741,5.731v8.678
		c0,1.838,0.353,3.662,1.037,5.37c0.604,1.5-0.506,3.145-2.132,3.145H28.63c-1.902,0-3.445,1.54-3.445,3.439v8.024h43.631v-8.024
		c0-1.899-1.543-3.439-3.444-3.439H53.835z"/>
</g>
</svg>
