<?xml version="1.0" encoding="utf-8"?>
<!-- Generator: Adobe Illustrator 16.0.0, SVG Export Plug-In . SVG Version: 6.00 Build 0)  -->
<!DOCTYPE svg PUBLIC "-//W3C//DTD SVG 1.1//EN" "http://www.w3.org/Graphics/SVG/1.1/DTD/svg11.dtd">
<svg version="1.1" id="Calque_1" xmlns="http://www.w3.org/2000/svg" xmlns:xlink="http://www.w3.org/1999/xlink" x="0px" y="0px"
	 width="90px" height="90px" viewBox="0 0 90 90" enable-background="new 0 0 90 90" xml:space="preserve">
<g id="_x30_1_-_cat_petits_cadeaux">
	<path fill="#203456" d="M46.51,90C70.529,90,90,70.529,90,46.512c0-24.02-19.471-43.491-43.49-43.491
		c-24.017,0-43.489,19.471-43.489,43.491C3.021,70.529,22.493,90,46.51,90"/>
	<path fill="#FFFFFF" d="M43.489,86.979c24.019,0,43.49-19.471,43.49-43.489C86.979,19.47,67.508,0,43.489,0
		C19.471,0,0,19.47,0,43.489C0,67.508,19.471,86.979,43.489,86.979"/>
	<g id="icon_cadeau">
		<path fill="#24B8CF" d="M51.236,67.131V31.713 M35.742,31.713v35.418 M66.73,67.131H20.248V40.568H66.73V67.131z M68.943,40.567
			H18.033v-8.854h50.911V40.567z"/>
		<g>
			<path fill="#E23D21" d="M31.108,26.718c2.138,2.113,12.381,4.589,12.381,4.589s-2.507-10.127-4.642-12.238
				c-2.138-2.113-5.602-2.113-7.739,0C28.973,21.18,28.971,24.605,31.108,26.718 M55.871,26.718
				c-2.139,2.113-12.382,4.589-12.382,4.589s2.505-10.127,4.642-12.238c2.137-2.113,5.602-2.113,7.74,0
				C58.006,21.18,58.006,24.605,55.871,26.718"/>
			
				<path fill="none" stroke="#203456" stroke-width="1.8" stroke-linecap="round" stroke-linejoin="round" stroke-miterlimit="10" d="
				M31.108,26.718c2.138,2.113,12.381,4.589,12.381,4.589s-2.507-10.127-4.642-12.238c-2.138-2.113-5.602-2.113-7.739,0
				C28.973,21.18,28.971,24.605,31.108,26.718z M55.871,26.718c-2.139,2.113-12.382,4.589-12.382,4.589s2.505-10.127,4.642-12.238
				c2.137-2.113,5.602-2.113,7.74,0C58.006,21.18,58.006,24.605,55.871,26.718z"/>
		</g>
		<rect x="35.789" y="31.595" fill="#E23D21" width="15.495" height="35.417"/>
		<path fill="none" stroke="#203456" stroke-width="1.8" stroke-linejoin="round" stroke-miterlimit="10" d="M51.188,66.969V31.872
			 M35.791,31.872v35.097 M66.586,66.969H20.392V40.646h46.194V66.969z M68.785,40.646H18.193v-8.774h50.592V40.646z"/>
	</g>
</g>
</svg>
