<?xml version="1.0" encoding="utf-8"?>
<!-- Generator: Adobe Illustrator 16.0.0, SVG Export Plug-In . SVG Version: 6.00 Build 0)  -->
<!DOCTYPE svg PUBLIC "-//W3C//DTD SVG 1.1//EN" "http://www.w3.org/Graphics/SVG/1.1/DTD/svg11.dtd">
<svg version="1.1" id="Calque_1" xmlns="http://www.w3.org/2000/svg" xmlns:xlink="http://www.w3.org/1999/xlink" x="0px" y="0px"
	 width="18px" height="18px" viewBox="0 0 18 18" enable-background="new 0 0 18 18" xml:space="preserve">
<g>
	<path fill="#213558" d="M6.692,8.013c0.705-0.706,1.933-0.706,2.636,0L9.988,8.67c0.364,0.365,0.954,0.365,1.318,0
		c0.363-0.363,0.363-0.954,0-1.317l-0.658-0.658C9.943,5.989,9.006,5.602,8.011,5.602S6.079,5.989,5.375,6.693L1.09,10.978
		c-1.454,1.453-1.454,3.818,0,5.271l0.659,0.657C2.454,17.612,3.39,18,4.386,18c0.996,0,1.931-0.39,2.635-1.093l2.025-2.023
		c0.364-0.364,0.364-0.954,0-1.317c-0.364-0.364-0.954-0.364-1.318,0L5.703,15.59c-0.704,0.704-1.931,0.704-2.636,0l-0.659-0.659
		c-0.727-0.727-0.727-1.909,0-2.635L6.692,8.013z"/>
	<path fill="#213558" d="M12.625,11.307l4.283-4.284C17.612,6.319,18,5.383,18,4.388c0-0.997-0.388-1.932-1.092-2.635l-0.659-0.661
		C15.544,0.388,14.609,0,13.613,0s-1.933,0.388-2.637,1.092l-1.85,1.85C8.762,3.307,8.762,3.897,9.125,4.259
		c0.364,0.366,0.955,0.366,1.32,0.001l1.85-1.85c0.353-0.352,0.82-0.546,1.318-0.546s0.965,0.194,1.317,0.546l0.659,0.66
		c0.353,0.352,0.546,0.819,0.546,1.318c0,0.498-0.193,0.966-0.546,1.317l-4.284,4.283c-0.703,0.705-1.931,0.705-2.635,0
		c-0.364-0.363-0.954-0.363-1.318,0c-0.364,0.365-0.364,0.954-0.001,1.318c0.705,0.704,1.64,1.093,2.636,1.093
		C10.984,12.398,11.92,12.01,12.625,11.307z"/>
</g>
</svg>
